# xmcd CD database file generated by OrangeCD 6.0
#
# Track frame offsets:
#	182
#	14615
#	27295
#	39435
#	52125
#	65735
#	78252
#	90727
#	106842
#	119772
#	132487
#	147867
#	158985
#	174742
#	188900
#
# Disc length: 2688 seconds
#
# Revision: 0
# Processed by: cddbd v1.5.1PL2 Copyright (c) Steve Scherf et al.
# Submitted via: OrangeCD 6.0
#
DISCID=d80a7e0f
DTITLE=John Lee Hooker - Blues
DYEAR=1993
DGENRE=
TTITLE0=Henry's Swing Club
TTITLE1=Graveyard Blues
TTITLE2=Burnin' Hell
TTITLE3=Sailing Blues
TTITLE4=Black Cat Blues
TTITLE5=Miss Sadie Mae
TTITLE6=Boogie Chillun n.2
TTITLE7=Black Snake
TTITLE8=Wobblin' Baby
TTITLE9=She's long,She's Tall,She weeps like a willow tree
TTITLE10=Tupelo Blues
TTITLE11=I need some money
TTITLE12=Democrat Man
TTITLE13=Slow and easy
TTITLE14=Please don't go
EXTD=
EXTT0=
EXTT1=
EXTT2=
EXTT3=
EXTT4=
EXTT5=
EXTT6=
EXTT7=
EXTT8=
EXTT9=
EXTT10=
EXTT11=
EXTT12=
EXTT13=
EXTT14=
PLAYORDER=
